<svg xmlns="http://www.w3.org/2000/svg" xmlns:xlink="http://www.w3.org/1999/xlink" width="600" zoomAndPan="magnify" viewBox="0 0 450 149.999998" height="200" preserveAspectRatio="xMidYMid meet" version="1.0"><defs><g/></defs><g fill="#203fcf" fill-opacity="0.4"><g transform="translate(54.116489, 102.997794)"><g><path d="M 1.105469 0 L 31.65625 0 L 33.410156 -11.246094 L 15.796875 -11.246094 L 16.640625 -16.511719 L 32.695312 -16.511719 L 34.386719 -26.976562 L 18.265625 -26.976562 L 19.109375 -32.304688 L 36.140625 -32.304688 L 37.960938 -43.550781 L 7.867188 -43.550781 Z M 1.105469 0 "/></g></g></g><g fill="#203fcf" fill-opacity="0.4"><g transform="translate(88.757009, 102.997794)"><g><path d="M 40.820312 -12.609375 C 38.9375 -9.878906 36.011719 -8.125 33.542969 -8.058594 C 31.394531 -7.996094 30.160156 -8.644531 29.121094 -10.660156 L 26.847656 -15.015625 L 37.832031 -29.382812 L 24.699219 -29.382812 L 20.996094 -23.921875 L 18.394531 -29.902344 L 5.980469 -28.925781 C 5.460938 -22.230469 3.835938 -16.25 1.234375 -12.609375 L 4.289062 -8.839844 C 7.148438 -12.546875 9.035156 -17.550781 9.359375 -23.402344 L 9.554688 -23.402344 C 9.878906 -21.839844 10.984375 -19.5 11.636719 -18.199219 L 13.324219 -14.820312 L 2.339844 0 L 15.664062 0 L 19.5 -5.265625 L 20.410156 -3.640625 C 22.296875 -0.261719 24.507812 0.976562 27.886719 0.976562 C 33.867188 0.976562 38.804688 -2.144531 43.875 -8.839844 Z M 40.820312 -12.609375 "/></g></g></g><g fill="#203fcf" fill-opacity="0.4"><g transform="translate(126.387171, 102.997794)"><g><path d="M 11.894531 0.976562 C 15.796875 0.976562 19.5 -0.519531 23.074219 -3.511719 C 23.984375 -0.453125 26.261719 0.976562 30.226562 0.976562 C 36.011719 0.976562 41.148438 -2.144531 46.410156 -8.839844 L 43.355469 -12.609375 C 41.667969 -10.074219 38.675781 -8.058594 36.597656 -8.058594 C 35.035156 -8.058594 34.710938 -9.164062 35.296875 -12.609375 L 38.15625 -29.902344 L 25.804688 -28.859375 C 23.789062 -29.574219 21.90625 -29.902344 19.695312 -29.902344 C 8.710938 -29.902344 1.234375 -22.359375 1.234375 -11.308594 C 1.234375 -3.445312 5.070312 0.976562 11.894531 0.976562 Z M 17.289062 -8.449219 C 15.46875 -8.449219 14.625 -9.359375 14.625 -12.089844 C 14.625 -17.289062 17.160156 -19.890625 21.449219 -19.890625 C 22.101562 -19.890625 22.621094 -19.890625 23.335938 -19.824219 L 21.90625 -10.660156 C 20.605469 -9.296875 18.851562 -8.449219 17.289062 -8.449219 Z M 17.289062 -8.449219 "/></g></g></g><g fill="#203fcf" fill-opacity="0.4"><g transform="translate(166.552029, 102.997794)"><g><path d="M 60.128906 -12.609375 C 58.371094 -10.011719 55.445312 -8.058594 53.433594 -8.058594 C 51.871094 -8.058594 51.480469 -9.164062 52.003906 -12.15625 L 53.367188 -20.347656 C 54.40625 -26.390625 51.742188 -29.902344 46.214844 -29.902344 C 42.773438 -29.902344 39.328125 -28.601562 34.386719 -25.414062 C 33.476562 -28.339844 30.941406 -29.902344 27.300781 -29.902344 C 24.050781 -29.902344 20.867188 -28.730469 16.316406 -25.9375 L 16.964844 -29.902344 L 3.707031 -28.925781 L -0.84375 0 L 12.285156 0 L 15.210938 -18.851562 C 16.902344 -19.824219 18.070312 -20.214844 19.046875 -20.214844 C 20.605469 -20.214844 21.191406 -19.175781 20.867188 -16.964844 L 18.136719 0 L 31.265625 0 L 34.257812 -18.914062 C 35.75 -19.824219 36.921875 -20.214844 37.894531 -20.214844 C 39.457031 -20.214844 40.042969 -19.175781 39.714844 -16.964844 L 38.417969 -8.773438 C 37.375 -2.210938 39.976562 0.976562 46.410156 0.976562 C 52.71875 0.976562 57.980469 -2.082031 63.183594 -8.839844 Z M 60.128906 -12.609375 "/></g></g></g><g fill="#203fcf" fill-opacity="0.4"><g transform="translate(223.484883, 102.997794)"><g><path d="M 11.050781 0 L 24.507812 0 L 29.382812 -31.917969 L 41.015625 -31.917969 L 42.835938 -43.550781 L 6.046875 -43.550781 L 4.226562 -31.917969 L 16.054688 -31.917969 Z M 11.050781 0 "/></g></g></g><g fill="#203fcf" fill-opacity="0.4"><g transform="translate(261.50498, 102.997794)"><g><path d="M 33.929688 -12.609375 C 31.65625 -9.554688 26.847656 -7.410156 22.230469 -7.410156 C 20.085938 -7.410156 18.394531 -7.929688 17.09375 -8.839844 C 25.546875 -9.945312 30.746094 -14.234375 30.746094 -20.410156 C 30.746094 -26.324219 26.132812 -29.902344 18.65625 -29.902344 C 8.386719 -29.902344 1.234375 -23.011719 1.234375 -12.933594 C 1.234375 -4.03125 6.890625 0.910156 17.03125 0.910156 C 25.351562 0.910156 32.109375 -2.339844 36.988281 -8.839844 Z M 18.199219 -20.734375 C 19.4375 -20.734375 20.085938 -20.085938 20.085938 -18.65625 C 20.085938 -16.445312 17.550781 -14.496094 14.496094 -14.171875 C 14.496094 -18.136719 15.925781 -20.734375 18.199219 -20.734375 Z M 18.199219 -20.734375 "/></g></g></g><g fill="#203fcf" fill-opacity="0.4"><g transform="translate(292.24596, 102.997794)"><g><path d="M 17.03125 0.976562 C 25.285156 0.976562 31.851562 -2.339844 36.792969 -8.839844 L 33.734375 -12.609375 C 31.394531 -9.492188 26.585938 -7.410156 21.90625 -7.410156 C 16.964844 -7.410156 14.496094 -9.554688 14.496094 -13.976562 C 14.496094 -17.679688 16.1875 -20.605469 18.527344 -20.605469 C 20.085938 -20.605469 20.605469 -19.175781 19.824219 -16.902344 L 29.1875 -14.949219 C 33.28125 -23.789062 29.054688 -29.902344 19.046875 -29.902344 C 8.515625 -29.902344 1.429688 -23.207031 1.234375 -13.261719 C 1.105469 -4.160156 6.761719 0.976562 17.03125 0.976562 Z M 17.03125 0.976562 "/></g></g></g><g fill="#203fcf" fill-opacity="0.4"><g transform="translate(322.791979, 102.997794)"><g><path d="M 27.820312 0.976562 C 34.125 0.976562 39.390625 -2.082031 44.589844 -8.839844 L 41.535156 -12.609375 C 39.78125 -10.011719 36.855469 -8.058594 34.839844 -8.058594 C 33.28125 -8.058594 32.890625 -9.164062 33.410156 -12.15625 L 34.777344 -20.347656 C 35.816406 -26.519531 33.214844 -29.902344 27.429688 -29.902344 C 24.050781 -29.902344 20.605469 -28.730469 16.511719 -26.195312 L 19.695312 -46.476562 L 6.371094 -45.5 L -0.84375 0 L 12.351562 0 L 15.339844 -18.980469 C 16.835938 -19.824219 18.136719 -20.214844 19.242188 -20.214844 C 20.867188 -20.214844 21.449219 -19.175781 21.125 -16.964844 L 19.824219 -8.773438 C 18.785156 -2.210938 21.386719 0.976562 27.820312 0.976562 Z M 27.820312 0.976562 "/></g></g></g><g fill="#203fcf" fill-opacity="0.4"><g transform="translate(361.137054, 102.997794)"><g><path d="M 12.351562 13.78125 C 20.929688 13.78125 27.886719 10.269531 31.203125 0.714844 C 37.179688 -1.105469 41.148438 -3.964844 44.785156 -8.839844 L 41.730469 -12.609375 C 39.457031 -9.425781 36.269531 -7.476562 32.761719 -6.304688 L 36.53125 -29.902344 L 23.269531 -28.925781 L 20.28125 -10.335938 C 19.046875 -9.359375 17.421875 -8.710938 16.054688 -8.710938 C 14.367188 -8.710938 13.910156 -9.75 14.234375 -11.960938 L 17.09375 -29.902344 L 3.835938 -28.925781 L 0.910156 -10.789062 C -0.390625 -2.859375 2.46875 0.976562 9.230469 0.976562 C 12.480469 0.976562 15.796875 0.0664062 18.722656 -1.496094 C 18.460938 -0.585938 18.199219 0.261719 17.8125 0.976562 C 16.640625 3.378906 14.691406 4.679688 11.636719 4.679688 C 7.800781 4.679688 4.421875 3.707031 2.015625 2.46875 L 0.648438 11.699219 C 4.03125 13.195312 8.125 13.78125 12.351562 13.78125 Z M 12.351562 13.78125 "/></g></g></g><g fill="#5271ff" fill-opacity="1"><g transform="translate(51.243691, 100.124996)"><g><path d="M 1.105469 0 L 31.65625 0 L 33.410156 -11.246094 L 15.796875 -11.246094 L 16.640625 -16.511719 L 32.695312 -16.511719 L 34.386719 -26.976562 L 18.265625 -26.976562 L 19.109375 -32.304688 L 36.140625 -32.304688 L 37.960938 -43.550781 L 7.867188 -43.550781 Z M 1.105469 0 "/></g></g></g><g fill="#5271ff" fill-opacity="1"><g transform="translate(85.884211, 100.124996)"><g><path d="M 40.820312 -12.609375 C 38.9375 -9.878906 36.011719 -8.125 33.542969 -8.058594 C 31.394531 -7.996094 30.160156 -8.644531 29.121094 -10.660156 L 26.847656 -15.015625 L 37.832031 -29.382812 L 24.699219 -29.382812 L 20.996094 -23.921875 L 18.394531 -29.902344 L 5.980469 -28.925781 C 5.460938 -22.230469 3.835938 -16.25 1.234375 -12.609375 L 4.289062 -8.839844 C 7.148438 -12.546875 9.035156 -17.550781 9.359375 -23.402344 L 9.554688 -23.402344 C 9.878906 -21.839844 10.984375 -19.5 11.636719 -18.199219 L 13.324219 -14.820312 L 2.339844 0 L 15.664062 0 L 19.5 -5.265625 L 20.410156 -3.640625 C 22.296875 -0.261719 24.507812 0.976562 27.886719 0.976562 C 33.867188 0.976562 38.804688 -2.144531 43.875 -8.839844 Z M 40.820312 -12.609375 "/></g></g></g><g fill="#5271ff" fill-opacity="1"><g transform="translate(123.514374, 100.124996)"><g><path d="M 11.894531 0.976562 C 15.796875 0.976562 19.5 -0.519531 23.074219 -3.511719 C 23.984375 -0.453125 26.261719 0.976562 30.226562 0.976562 C 36.011719 0.976562 41.148438 -2.144531 46.410156 -8.839844 L 43.355469 -12.609375 C 41.667969 -10.074219 38.675781 -8.058594 36.597656 -8.058594 C 35.035156 -8.058594 34.710938 -9.164062 35.296875 -12.609375 L 38.15625 -29.902344 L 25.804688 -28.859375 C 23.789062 -29.574219 21.90625 -29.902344 19.695312 -29.902344 C 8.710938 -29.902344 1.234375 -22.359375 1.234375 -11.308594 C 1.234375 -3.445312 5.070312 0.976562 11.894531 0.976562 Z M 17.289062 -8.449219 C 15.46875 -8.449219 14.625 -9.359375 14.625 -12.089844 C 14.625 -17.289062 17.160156 -19.890625 21.449219 -19.890625 C 22.101562 -19.890625 22.621094 -19.890625 23.335938 -19.824219 L 21.90625 -10.660156 C 20.605469 -9.296875 18.851562 -8.449219 17.289062 -8.449219 Z M 17.289062 -8.449219 "/></g></g></g><g fill="#5271ff" fill-opacity="1"><g transform="translate(163.679231, 100.124996)"><g><path d="M 60.128906 -12.609375 C 58.371094 -10.011719 55.445312 -8.058594 53.433594 -8.058594 C 51.871094 -8.058594 51.480469 -9.164062 52.003906 -12.15625 L 53.367188 -20.347656 C 54.40625 -26.390625 51.742188 -29.902344 46.214844 -29.902344 C 42.773438 -29.902344 39.328125 -28.601562 34.386719 -25.414062 C 33.476562 -28.339844 30.941406 -29.902344 27.300781 -29.902344 C 24.050781 -29.902344 20.867188 -28.730469 16.316406 -25.9375 L 16.964844 -29.902344 L 3.707031 -28.925781 L -0.84375 0 L 12.285156 0 L 15.210938 -18.851562 C 16.902344 -19.824219 18.070312 -20.214844 19.046875 -20.214844 C 20.605469 -20.214844 21.191406 -19.175781 20.867188 -16.964844 L 18.136719 0 L 31.265625 0 L 34.257812 -18.914062 C 35.75 -19.824219 36.921875 -20.214844 37.894531 -20.214844 C 39.457031 -20.214844 40.042969 -19.175781 39.714844 -16.964844 L 38.417969 -8.773438 C 37.375 -2.210938 39.976562 0.976562 46.410156 0.976562 C 52.71875 0.976562 57.980469 -2.082031 63.183594 -8.839844 Z M 60.128906 -12.609375 "/></g></g></g><g fill="#5271ff" fill-opacity="1"><g transform="translate(220.612085, 100.124996)"><g><path d="M 11.050781 0 L 24.507812 0 L 29.382812 -31.917969 L 41.015625 -31.917969 L 42.835938 -43.550781 L 6.046875 -43.550781 L 4.226562 -31.917969 L 16.054688 -31.917969 Z M 11.050781 0 "/></g></g></g><g fill="#5271ff" fill-opacity="1"><g transform="translate(258.632182, 100.124996)"><g><path d="M 33.929688 -12.609375 C 31.65625 -9.554688 26.847656 -7.410156 22.230469 -7.410156 C 20.085938 -7.410156 18.394531 -7.929688 17.09375 -8.839844 C 25.546875 -9.945312 30.746094 -14.234375 30.746094 -20.410156 C 30.746094 -26.324219 26.132812 -29.902344 18.65625 -29.902344 C 8.386719 -29.902344 1.234375 -23.011719 1.234375 -12.933594 C 1.234375 -4.03125 6.890625 0.910156 17.03125 0.910156 C 25.351562 0.910156 32.109375 -2.339844 36.988281 -8.839844 Z M 18.199219 -20.734375 C 19.4375 -20.734375 20.085938 -20.085938 20.085938 -18.65625 C 20.085938 -16.445312 17.550781 -14.496094 14.496094 -14.171875 C 14.496094 -18.136719 15.925781 -20.734375 18.199219 -20.734375 Z M 18.199219 -20.734375 "/></g></g></g><g fill="#5271ff" fill-opacity="1"><g transform="translate(289.373163, 100.124996)"><g><path d="M 17.03125 0.976562 C 25.285156 0.976562 31.851562 -2.339844 36.792969 -8.839844 L 33.734375 -12.609375 C 31.394531 -9.492188 26.585938 -7.410156 21.90625 -7.410156 C 16.964844 -7.410156 14.496094 -9.554688 14.496094 -13.976562 C 14.496094 -17.679688 16.1875 -20.605469 18.527344 -20.605469 C 20.085938 -20.605469 20.605469 -19.175781 19.824219 -16.902344 L 29.1875 -14.949219 C 33.28125 -23.789062 29.054688 -29.902344 19.046875 -29.902344 C 8.515625 -29.902344 1.429688 -23.207031 1.234375 -13.261719 C 1.105469 -4.160156 6.761719 0.976562 17.03125 0.976562 Z M 17.03125 0.976562 "/></g></g></g><g fill="#5271ff" fill-opacity="1"><g transform="translate(319.919181, 100.124996)"><g><path d="M 27.820312 0.976562 C 34.125 0.976562 39.390625 -2.082031 44.589844 -8.839844 L 41.535156 -12.609375 C 39.78125 -10.011719 36.855469 -8.058594 34.839844 -8.058594 C 33.28125 -8.058594 32.890625 -9.164062 33.410156 -12.15625 L 34.777344 -20.347656 C 35.816406 -26.519531 33.214844 -29.902344 27.429688 -29.902344 C 24.050781 -29.902344 20.605469 -28.730469 16.511719 -26.195312 L 19.695312 -46.476562 L 6.371094 -45.5 L -0.84375 0 L 12.351562 0 L 15.339844 -18.980469 C 16.835938 -19.824219 18.136719 -20.214844 19.242188 -20.214844 C 20.867188 -20.214844 21.449219 -19.175781 21.125 -16.964844 L 19.824219 -8.773438 C 18.785156 -2.210938 21.386719 0.976562 27.820312 0.976562 Z M 27.820312 0.976562 "/></g></g></g><g fill="#5271ff" fill-opacity="1"><g transform="translate(358.264256, 100.124996)"><g><path d="M 12.351562 13.78125 C 20.929688 13.78125 27.886719 10.269531 31.203125 0.714844 C 37.179688 -1.105469 41.148438 -3.964844 44.785156 -8.839844 L 41.730469 -12.609375 C 39.457031 -9.425781 36.269531 -7.476562 32.761719 -6.304688 L 36.53125 -29.902344 L 23.269531 -28.925781 L 20.28125 -10.335938 C 19.046875 -9.359375 17.421875 -8.710938 16.054688 -8.710938 C 14.367188 -8.710938 13.910156 -9.75 14.234375 -11.960938 L 17.09375 -29.902344 L 3.835938 -28.925781 L 0.910156 -10.789062 C -0.390625 -2.859375 2.46875 0.976562 9.230469 0.976562 C 12.480469 0.976562 15.796875 0.0664062 18.722656 -1.496094 C 18.460938 -0.585938 18.199219 0.261719 17.8125 0.976562 C 16.640625 3.378906 14.691406 4.679688 11.636719 4.679688 C 7.800781 4.679688 4.421875 3.707031 2.015625 2.46875 L 0.648438 11.699219 C 4.03125 13.195312 8.125 13.78125 12.351562 13.78125 Z M 12.351562 13.78125 "/></g></g></g><g fill="#000000" fill-opacity="1"><g transform="translate(182.730603, 119.400003)"><g><path d="M 0.078125 -5.9375 L 0.078125 -7.421875 L 5.296875 -7.421875 L 5.296875 -5.9375 L 3.53125 -5.9375 L 3.53125 0 L 1.84375 0 L 1.84375 -5.9375 Z M 0.078125 -5.9375 "/></g></g></g><g fill="#000000" fill-opacity="1"><g transform="translate(191.08262, 119.400003)"><g><path d="M 4.78125 -7.421875 L 4.78125 -5.9375 L 2.234375 -5.9375 L 2.234375 -4.46875 L 4.6875 -4.46875 L 4.6875 -2.984375 L 2.234375 -2.984375 L 2.234375 -1.484375 L 4.78125 -1.484375 L 4.78125 0 L 0.546875 0 L 0.546875 -7.421875 Z M 4.78125 -7.421875 "/></g></g></g><g fill="#000000" fill-opacity="1"><g transform="translate(199.290636, 119.400003)"><g><path d="M 4.484375 -1.53125 C 4.742188 -1.53125 4.992188 -1.566406 5.234375 -1.640625 C 5.484375 -1.722656 5.664062 -1.800781 5.78125 -1.875 L 5.953125 -1.984375 L 6.671875 -0.546875 C 6.648438 -0.523438 6.613281 -0.5 6.5625 -0.46875 C 6.519531 -0.445312 6.421875 -0.394531 6.265625 -0.3125 C 6.117188 -0.226562 5.957031 -0.15625 5.78125 -0.09375 C 5.613281 -0.0390625 5.390625 0.0078125 5.109375 0.0625 C 4.828125 0.113281 4.535156 0.140625 4.234375 0.140625 C 3.535156 0.140625 2.878906 -0.0234375 2.265625 -0.359375 C 1.648438 -0.703125 1.148438 -1.171875 0.765625 -1.765625 C 0.390625 -2.359375 0.203125 -3.003906 0.203125 -3.703125 C 0.203125 -4.222656 0.3125 -4.722656 0.53125 -5.203125 C 0.757812 -5.679688 1.054688 -6.09375 1.421875 -6.4375 C 1.796875 -6.78125 2.226562 -7.050781 2.71875 -7.25 C 3.207031 -7.457031 3.710938 -7.5625 4.234375 -7.5625 C 4.710938 -7.5625 5.15625 -7.503906 5.5625 -7.390625 C 5.96875 -7.273438 6.253906 -7.160156 6.421875 -7.046875 L 6.671875 -6.875 L 5.953125 -5.4375 C 5.910156 -5.46875 5.847656 -5.507812 5.765625 -5.5625 C 5.679688 -5.613281 5.507812 -5.679688 5.25 -5.765625 C 5 -5.847656 4.742188 -5.890625 4.484375 -5.890625 C 4.078125 -5.890625 3.710938 -5.820312 3.390625 -5.6875 C 3.066406 -5.5625 2.8125 -5.390625 2.625 -5.171875 C 2.4375 -4.953125 2.289062 -4.71875 2.1875 -4.46875 C 2.09375 -4.226562 2.046875 -3.976562 2.046875 -3.71875 C 2.046875 -3.15625 2.253906 -2.648438 2.671875 -2.203125 C 3.097656 -1.753906 3.703125 -1.53125 4.484375 -1.53125 Z M 4.484375 -1.53125 "/></g></g></g><g fill="#000000" fill-opacity="1"><g transform="translate(209.055649, 119.400003)"><g><path d="M 2.234375 -2.984375 L 2.234375 0 L 0.546875 0 L 0.546875 -7.421875 L 2.234375 -7.421875 L 2.234375 -4.46875 L 4.625 -4.46875 L 4.625 -7.421875 L 6.3125 -7.421875 L 6.3125 0 L 4.625 0 L 4.625 -2.984375 Z M 2.234375 -2.984375 "/></g></g></g><g fill="#000000" fill-opacity="1"><g transform="translate(218.901666, 119.400003)"><g/></g></g><g fill="#000000" fill-opacity="1"><g transform="translate(224.346663, 119.400003)"><g><path d="M 3.28125 -7.5625 C 3.675781 -7.5625 4.066406 -7.5 4.453125 -7.375 C 4.835938 -7.257812 5.125 -7.144531 5.3125 -7.03125 L 5.578125 -6.859375 L 4.890625 -5.515625 C 4.835938 -5.546875 4.765625 -5.585938 4.671875 -5.640625 C 4.578125 -5.703125 4.394531 -5.78125 4.125 -5.875 C 3.863281 -5.96875 3.617188 -6.015625 3.390625 -6.015625 C 3.109375 -6.015625 2.890625 -5.953125 2.734375 -5.828125 C 2.585938 -5.710938 2.515625 -5.554688 2.515625 -5.359375 C 2.515625 -5.253906 2.550781 -5.15625 2.625 -5.0625 C 2.695312 -4.976562 2.816406 -4.882812 2.984375 -4.78125 C 3.160156 -4.6875 3.3125 -4.609375 3.4375 -4.546875 C 3.570312 -4.492188 3.78125 -4.40625 4.0625 -4.28125 C 4.539062 -4.082031 4.945312 -3.804688 5.28125 -3.453125 C 5.625 -3.097656 5.796875 -2.703125 5.796875 -2.265625 C 5.796875 -1.835938 5.71875 -1.460938 5.5625 -1.140625 C 5.414062 -0.828125 5.207031 -0.578125 4.9375 -0.390625 C 4.664062 -0.210938 4.367188 -0.0820312 4.046875 0 C 3.722656 0.09375 3.375 0.140625 3 0.140625 C 2.675781 0.140625 2.359375 0.101562 2.046875 0.03125 C 1.734375 -0.03125 1.46875 -0.109375 1.25 -0.203125 C 1.039062 -0.304688 0.851562 -0.40625 0.6875 -0.5 C 0.519531 -0.59375 0.398438 -0.675781 0.328125 -0.75 L 0.203125 -0.84375 L 1.046875 -2.265625 C 1.117188 -2.203125 1.21875 -2.125 1.34375 -2.03125 C 1.46875 -1.945312 1.691406 -1.828125 2.015625 -1.671875 C 2.335938 -1.515625 2.625 -1.4375 2.875 -1.4375 C 3.582031 -1.4375 3.9375 -1.675781 3.9375 -2.15625 C 3.9375 -2.257812 3.910156 -2.351562 3.859375 -2.4375 C 3.804688 -2.53125 3.71875 -2.617188 3.59375 -2.703125 C 3.46875 -2.785156 3.351562 -2.851562 3.25 -2.90625 C 3.15625 -2.957031 2.992188 -3.035156 2.765625 -3.140625 C 2.546875 -3.242188 2.378906 -3.328125 2.265625 -3.390625 C 1.816406 -3.609375 1.46875 -3.882812 1.21875 -4.21875 C 0.976562 -4.550781 0.859375 -4.910156 0.859375 -5.296875 C 0.859375 -5.960938 1.101562 -6.503906 1.59375 -6.921875 C 2.082031 -7.347656 2.644531 -7.5625 3.28125 -7.5625 Z M 3.28125 -7.5625 "/></g></g></g><g fill="#000000" fill-opacity="1"><g transform="translate(233.382677, 119.400003)"><g><path d="M 0.078125 -5.9375 L 0.078125 -7.421875 L 5.296875 -7.421875 L 5.296875 -5.9375 L 3.53125 -5.9375 L 3.53125 0 L 1.84375 0 L 1.84375 -5.9375 Z M 0.078125 -5.9375 "/></g></g></g><g fill="#000000" fill-opacity="1"><g transform="translate(241.734695, 119.400003)"><g><path d="M 0.203125 -3.71875 C 0.203125 -4.789062 0.566406 -5.695312 1.296875 -6.4375 C 2.035156 -7.1875 2.921875 -7.5625 3.953125 -7.5625 C 4.992188 -7.5625 5.875 -7.191406 6.59375 -6.453125 C 7.320312 -5.710938 7.6875 -4.800781 7.6875 -3.71875 C 7.6875 -2.632812 7.328125 -1.71875 6.609375 -0.96875 C 5.898438 -0.226562 5.015625 0.140625 3.953125 0.140625 C 2.867188 0.140625 1.972656 -0.222656 1.265625 -0.953125 C 0.554688 -1.691406 0.203125 -2.613281 0.203125 -3.71875 Z M 2.03125 -3.71875 C 2.03125 -3.320312 2.085938 -2.960938 2.203125 -2.640625 C 2.328125 -2.328125 2.539062 -2.054688 2.84375 -1.828125 C 3.144531 -1.609375 3.515625 -1.5 3.953125 -1.5 C 4.578125 -1.5 5.050781 -1.710938 5.375 -2.140625 C 5.695312 -2.578125 5.859375 -3.101562 5.859375 -3.71875 C 5.859375 -4.320312 5.691406 -4.84375 5.359375 -5.28125 C 5.035156 -5.71875 4.566406 -5.9375 3.953125 -5.9375 C 3.335938 -5.9375 2.863281 -5.71875 2.53125 -5.28125 C 2.195312 -4.84375 2.03125 -4.320312 2.03125 -3.71875 Z M 2.03125 -3.71875 "/></g></g></g><g fill="#000000" fill-opacity="1"><g transform="translate(252.615723, 119.400003)"><g><path d="M 0.546875 -7.421875 L 3.1875 -7.421875 C 3.90625 -7.421875 4.488281 -7.226562 4.9375 -6.84375 C 5.382812 -6.46875 5.609375 -5.925781 5.609375 -5.21875 C 5.609375 -4.675781 5.472656 -4.21875 5.203125 -3.84375 C 4.929688 -3.476562 4.5625 -3.21875 4.09375 -3.0625 L 6.65625 0 L 4.5 0 L 2.234375 -2.9375 L 2.234375 0 L 0.546875 0 Z M 2.234375 -4.125 L 2.4375 -4.125 C 2.582031 -4.125 2.707031 -4.128906 2.8125 -4.140625 C 2.925781 -4.148438 3.050781 -4.171875 3.1875 -4.203125 C 3.332031 -4.234375 3.445312 -4.28125 3.53125 -4.34375 C 3.613281 -4.414062 3.679688 -4.515625 3.734375 -4.640625 C 3.796875 -4.765625 3.828125 -4.914062 3.828125 -5.09375 C 3.828125 -5.28125 3.796875 -5.4375 3.734375 -5.5625 C 3.679688 -5.6875 3.613281 -5.78125 3.53125 -5.84375 C 3.445312 -5.914062 3.332031 -5.96875 3.1875 -6 C 3.050781 -6.039062 2.925781 -6.0625 2.8125 -6.0625 C 2.707031 -6.070312 2.582031 -6.078125 2.4375 -6.078125 L 2.234375 -6.078125 Z M 2.234375 -4.125 "/></g></g></g><g fill="#000000" fill-opacity="1"><g transform="translate(262.047739, 119.400003)"><g><path d="M 4.78125 -7.421875 L 4.78125 -5.9375 L 2.234375 -5.9375 L 2.234375 -4.46875 L 4.6875 -4.46875 L 4.6875 -2.984375 L 2.234375 -2.984375 L 2.234375 -1.484375 L 4.78125 -1.484375 L 4.78125 0 L 0.546875 0 L 0.546875 -7.421875 Z M 4.78125 -7.421875 "/></g></g></g></svg>